<svg xmlns="http://www.w3.org/2000/svg" version="1.1" xmlns:xlink="http://www.w3.org/1999/xlink" xmlns:svgjs="http://svgjs.dev/svgjs" width="1500" height="935" viewBox="0 0 1500 935"><g transform="matrix(1,0,0,1,-0.9090909090909918,0.3785425101214628)"><svg viewBox="0 0 396 247" data-background-color="#0a1627" preserveAspectRatio="xMidYMid meet" height="935" width="1500" xmlns="http://www.w3.org/2000/svg" xmlns:xlink="http://www.w3.org/1999/xlink"><g id="tight-bounds" transform="matrix(1,0,0,1,0.2400000000000091,-0.09999999999999432)"><svg viewBox="0 0 395.52 247.2" height="247.2" width="395.52"><g><svg></svg></g><g><svg viewBox="0 0 395.52 247.2" height="247.2" width="395.52"><g transform="matrix(1,0,0,1,75.54432,47.2680614532872)"><svg viewBox="0 0 244.43135999999998 152.66387709342558" height="152.66387709342558" width="244.43135999999998"><g><svg viewBox="0 0 244.43135999999998 152.66387709342558" height="152.66387709342558" width="244.43135999999998"><g><svg viewBox="0 0 244.43135999999998 152.66387709342558" height="152.66387709342558" width="244.43135999999998"><g><svg viewBox="0 0 244.43135999999998 152.66387709342558" height="152.66387709342558" width="244.43135999999998"><g id="textblocktransform"><svg viewBox="0 0 244.43135999999998 152.66387709342558" height="152.66387709342558" width="244.43135999999998" id="textblock"><g><svg viewBox="0 0 244.43135999999998 152.66387709342558" height="152.66387709342558" width="244.43135999999998"><g transform="matrix(1,0,0,1,0,0)"><svg width="244.43135999999998" viewBox="2.2 -35.5 57.8 36.1" height="152.66387709342558" data-palette-color="#fe0039"><path d="M3.5 0.25L3.5 0.25Q2.55 0.25 2.2 0.2L2.2 0.2Q2.55-2.7 5.28-14.53 8-26.35 8-29.5L8-29.5Q8-30.1 7.3-31.08 6.6-32.05 5.9-32.7L5.9-32.7 5.25-33.4 5.4-34.2Q12.25-35.5 19.9-35.5L19.9-35.5Q29.1-35.5 29.1-28.25L29.1-28.25Q29.1-24.7 27.33-21.78 25.55-18.85 21.8-17.2L21.8-17.2Q24.6-7.85 26.6-5.1L26.6-5.1Q27.5-3.95 28-3.95L28-3.95Q28.9-3.95 30.8-4.85L30.8-4.85 31.4-5.15 32.55-3.3Q30.7-1.6 28.28-0.5 25.85 0.6 23.73 0.6 21.6 0.6 20.23-1.23 18.85-3.05 17.73-6.6 16.6-10.15 15.45-15.7L15.45-15.7Q13.85-15.6 13-15.6L13-15.6Q10.45-4.65 10.2-0.8L10.2-0.8Q8.05 0.25 3.5 0.25ZM13.75-19L14.95-19Q17.95-19 19.68-21.68 21.4-24.35 21.4-28.05L21.4-28.05Q21.4-30 20.7-31.2 20-32.4 18.6-32.4L18.6-32.4Q18-32.4 17.18-32.23 16.35-32.05 16.35-32L16.35-32Q15.55-26.85 13.75-19L13.75-19ZM38.45-35.5L38.45-35.5 55.15-34.95 59.85-35.05Q60-34 60-32.85 60-31.7 59.6-31.2 59.2-30.7 58.15-30.7L58.15-30.7Q58.05-30.7 51.1-31.35L51.1-31.35Q50.9-29.1 49.6-23.65 48.3-18.2 47.1-12 45.9-5.8 45.85-0.85L45.85-0.85Q43.9 0.15 37.85 0.15L37.85 0.15 37.5 0.15Q37.5-2.45 40.35-15.35 43.2-28.25 43.2-31.05L43.2-31.05Q43.2-31.25 43.1-31.75L43.1-31.75 41.1-31.75Q37-31.75 34.8-30.5L34.8-30.5Q33.65-32 33.4-34.9L33.4-34.9Q35.1-35.5 38.45-35.5Z" opacity="1" transform="matrix(1,0,0,1,0,0)" fill="#fe0039" class="wordmark-text-0" data-fill-palette-color="primary" id="text-0"></path></svg></g></svg></g></svg></g></svg></g></svg></g></svg></g></svg></g><path d="M137.69 41.268L137.69 0 384.89 0 384.89 247.2 137.69 247.2 137.69 205.932 151.457 205.932 151.457 233.433 371.122 233.433 371.122 13.767 151.457 13.767 151.457 41.268Z" fill="#fe0039" stroke="transparent" data-fill-palette-color="tertiary"></path></svg></g><defs></defs></svg><rect width="395.52" height="247.2" fill="none" stroke="none" visibility="hidden"></rect></g></svg></g></svg>